# xmcd CD database file
# Copyright (C) 1993-1998 Ti Kan
# 
# Track frame offsets:
#     150
#     16555
#     33785
#     57583
#     73345
#     89333
#     104373
#     116308
#     138365
#     149278
#     167143
#     186568
#     202918
#     215235
#     224263
#     238338
#     251643
#     268353
# 
# Disc length: 3714 seconds
# 
# Revision: 1
# Processed by: cddbd v1.4b41PL1 Copyright (c) Steve Scherf et al.
# Submitted via: DiscPlay 4.0.4
# 
DISCID=1b0e8012
DTITLE=Memphis Slim - Worried Life
DYEAR=1900
DGENRE=
TTITLE0=Baby Gone
TTITLE1=Cow Cow Blues
TTITLE2=Miss Ida B.
TTITLE3=Forty-four Blues
TTITLE4=Trouble in My Blues
TTITLE5=Worried Life Blues
TTITLE6=Don't Want My Rooster Crowin' After The Sun Goes Down
TTITLE7=Lonesome In My Bedroom
TTITLE8=Diggin' My Potatoes
TTITLE9=In The Evening
TTITLE10=Red Haired Boogie
TTITLE11=Blue And Disgusted
TTITLE12=New Key To The Highway
TTITLE13=I'd Take Her To Chicago
TTITLE14=Harlem Bound
TTITLE15=El Capitan
TTITLE16=I Just Landed In Your Town
TTITLE17=John Henry
EXTD=
EXTT0=
EXTT1=
EXTT2=
EXTT3=
EXTT4=
EXTT5=
EXTT6=
EXTT7=
EXTT8=
EXTT9=
EXTT10=
EXTT11=
EXTT12=
EXTT13=
EXTT14=
EXTT15=
EXTT16=
EXTT17=
PLAYORDER=
